<svg aria-hidden="true" style="width:0;height:0;position:absolute;overflow:hidden" xmlns="http://www.w3.org/2000/svg"><defs><symbol id="web_wonder-logo" viewBox="0 0 32 32"><path fill="#3a5b66" style="fill:var(--color1,#3a5b66)" d="M18.75 31.597c-1.378 0-2.755-.27-4.348-.584-3.676-.723-6.579-1.293-8.874-3.643-1.222-1.251-2.083-2.936-3.799-6.295-.82-1.604-.988-2.139-1.089-2.549-.598-2.41.073-4.499.665-6.341.443-1.38 1.186-3.692 3.178-6.091 2.706-3.259 5.949-4.566 7.217-4.977.769-.249 2.201-.713 4.112-.713.097 0 .197 0 .295.004 2.758.069 4.688 1.065 6.555 2.03 2.478 1.28 4.435 2.291 5.845 4.513.154.244.904 2.345 2.035 5.524.762 2.139 1.019 2.925 1.158 4.066.172 1.415.123 2.765-.146 4.012-.76 3.523-3.169 5.681-5.105 7.416-1.636 1.466-2.818 2.525-4.791 3.169a9.037 9.037 0 0 1-2.874.46h-.034.002z"/><path fill="#fff" style="fill:var(--color2,#fff)" d="M15.812 0v.807c.094 0 .19 0 .285.004 2.666.065 4.554 1.042 6.379 1.985 2.42 1.251 4.334 2.239 5.685 4.362.17.313.9 2.361 2.001 5.453.749 2.103 1.003 2.878 1.137 3.977.167 1.37.12 2.674-.14 3.877-.732 3.395-3.087 5.505-4.98 7.201-1.6 1.433-2.755 2.469-4.647 3.087a8.516 8.516 0 0 1-2.731.44h-.053.003c-1.339 0-2.698-.267-4.271-.576-1.874-.369-3.493-.687-4.939-1.208-1.534-.553-2.717-1.291-3.724-2.321-1.179-1.207-2.031-2.875-3.728-6.196-.801-1.568-.966-2.093-1.057-2.464-.249-1.005-.288-2.033-.12-3.142.161-1.06.503-2.123.778-2.978.435-1.353 1.162-3.617 3.105-5.956 2.639-3.178 5.796-4.451 7.03-4.851.748-.242 2.14-.693 3.988-.693V.001zm0 0c-1.935 0-3.392.459-4.238.733-.801.26-4.412 1.504-7.402 5.102C2.171 8.245 1.4 10.565.919 12.06c-.642 2-1.286 4.09-.673 6.562.106.427.28.988 1.121 2.636 1.737 3.399 2.605 5.099 3.87 6.393 2.383 2.44 5.329 3.019 9.085 3.757 1.602.315 3.009.592 4.427.592h.045a9.563 9.563 0 0 0 3.056-.498l-.067.02c2.053-.671 3.301-1.788 4.935-3.253 1.926-1.725 4.443-3.98 5.231-7.631.412-1.907.221-3.585.152-4.146-.145-1.186-.411-1.996-1.178-4.15-1.266-3.553-1.899-5.329-2.076-5.609-1.469-2.312-3.532-3.377-6.002-4.654-1.861-.962-3.878-2.004-6.729-2.075Q15.962 0 15.81 0z"/><path fill="#b3b8bd" style="fill:var(--color3,#b3b8bd)" d="M17.84 23.964a1.839 1.839 0 1 1-.538-1.3c.333.333.539.793.539 1.3z"/><path fill="#2e4c59" style="fill:var(--color4,#2e4c59)" d="M16.001 26.057h-.002a2.094 2.094 0 1 1 1.48-.613 2.088 2.088 0 0 1-1.479.613zm0-3.678h-.002a1.588 1.588 0 1 0 1.123.465 1.58 1.58 0 0 0-1.121-.464z"/><path fill="#3a5b66" style="fill:var(--color1,#3a5b66)" d="M17.84 23.964a1.839 1.839 0 1 1-.538-1.3c.333.333.539.793.539 1.3z"/><path fill="#fff" style="fill:var(--color2,#fff)" d="M16.001 26.057h-.002a2.094 2.094 0 1 1 1.48-.613 2.088 2.088 0 0 1-1.479.613zm0-3.678h-.002a1.588 1.588 0 1 0 1.123.465 1.58 1.58 0 0 0-1.121-.464z"/><path fill="#f93" style="fill:var(--color5,#f93)" d="M20.957 14.777v-.005a4.957 4.957 0 1 0-8.408 3.559l.001.001c.424.413.764.911.993 1.466l.011.029c.218.523.344 1.13.344 1.767v.108h4.208V21.6a4.54 4.54 0 0 1 .384-1.83l-.011.029a4.924 4.924 0 0 1 1.036-1.527 4.923 4.923 0 0 0 1.444-3.49v-.006z"/><path fill="#fff" style="fill:var(--color2,#fff)" d="M18.105 21.953h-4.208a.253.253 0 0 1-.253-.253v-.101c0-.609-.122-1.189-.344-1.718l.011.029a4.153 4.153 0 0 0-.937-1.395l-.001-.001a5.216 5.216 0 1 1 7.374-.12l.001-.001-.056.057c-.41.408-.743.892-.978 1.43l-.012.03a4.233 4.233 0 0 0-.344 1.688v.102c0 .14-.113.253-.253.253zm-3.957-.506h3.706c.021-.655.17-1.27.422-1.829l-.012.03a5.189 5.189 0 0 1 1.069-1.556 4.703 4.703 0 1 0-6.651.015l.043.042c.425.415.771.911 1.011 1.463l.012.03c.234.531.379 1.149.399 1.798v.007z"/><path fill="#848484" style="fill:var(--color6,#848484)" d="M18.055 22.3h-4.108a.47.47 0 0 1-.47-.47v-.079c0-.26.211-.47.47-.47h4.108a.47.47 0 0 1 .471.47v.079a.47.47 0 0 1-.471.47z"/><path fill="#fff" style="fill:var(--color2,#fff)" d="M18.016 22.554h-4.03a.763.763 0 0 1 0-1.526h4.047a.764.764 0 0 1 0 1.526h-.017.001zm-4.03-1.02a.259.259 0 0 0-.001.514H18.016a.259.259 0 0 0 .001-.514H13.986z"/><path fill="#848484" style="fill:var(--color6,#848484)" d="M18.055 23.32h-4.108a.47.47 0 0 1-.47-.47v-.078c0-.26.211-.47.47-.47h4.108c.26 0 .47.211.47.47v.078a.47.47 0 0 1-.47.47z"/><path fill="#fff" style="fill:var(--color2,#fff)" d="M18.016 23.573h-4.03a.764.764 0 0 1 0-1.526h4.03a.764.764 0 0 1 0 1.526zm-4.03-1.019a.258.258 0 0 0-.018.513h4.048a.258.258 0 0 0 .001-.513h-.001z"/><path fill="#848484" style="fill:var(--color6,#848484)" d="M18.055 24.339h-4.108a.47.47 0 0 1-.47-.471v-.078c0-.26.211-.47.47-.47h4.108a.47.47 0 0 1 .471.47v.078c0 .26-.211.471-.471.471z"/><path fill="#fff" style="fill:var(--color2,#fff)" d="M18.016 24.593h-4.03a.763.763 0 0 1 0-1.526h4.031a.763.763 0 0 1 0 1.526h-.001zm-4.03-1.02a.258.258 0 0 0-.001.513H18.016a.258.258 0 1 0-.001-.512h.001-4.03zm8.05-2.799a.252.252 0 0 1-.179-.074l-.941-.941a.254.254 0 0 1 .182-.429c.068 0 .131.027.176.071l.941.941a.252.252 0 0 1-.176.432h-.003zM11.109 9.848a.252.252 0 0 1-.179-.074l-.941-.941a.253.253 0 1 1 .358-.358l.941.941a.253.253 0 0 1-.179.432zm13.385 4.993h-1.337a.253.253 0 0 1-.012-.506H24.495a.253.253 0 0 1 0 .506zm-15.453 0H7.71a.253.253 0 0 1 0-.506H9.046a.253.253 0 0 1 .012.506h-.001zm12.054-4.993a.253.253 0 0 1-.179-.432l.941-.941a.253.253 0 1 1 .358.358l-.941.941a.252.252 0 0 1-.179.074zM10.168 20.774a.253.253 0 0 1-.179-.432l.941-.941a.253.253 0 1 1 .358.358l-.941.941a.248.248 0 0 1-.178.074h-.001zm5.934-12.995a.253.253 0 0 1-.253-.253V6.195a.253.253 0 1 1 .506 0v1.332a.253.253 0 0 1-.252.253zm-2.508.555h-.001a.252.252 0 0 1-.235-.16l-.001-.002-.254-.662a.253.253 0 1 1 .471-.183l.001.002.127.33.127.329a.252.252 0 0 1-.143.326l-.002.001a.189.189 0 0 1-.044.012h-.001a.206.206 0 0 1-.045.005zm9.529 9.621h-.001a.307.307 0 0 1-.053-.005h.002a.264.264 0 0 1-.052-.017l.002.001-.249-.11-.248-.109a.253.253 0 0 1 .207-.461l-.002-.001.497.22a.254.254 0 0 1-.103.484zM9.608 11.96a.233.233 0 0 1-.053-.006h.002a.264.264 0 0 1-.052-.017l.002.001-.527-.234a.252.252 0 0 1 .012-.467l.002-.001a.263.263 0 0 1 .196.005l-.002-.001.527.234a.253.253 0 0 1-.102.484zm13.093.337a.254.254 0 0 1-.093-.488l.002-.001.569-.217a.253.253 0 0 1 .322.341l.001-.002a.249.249 0 0 1-.139.133l-.002.001-.568.217a.255.255 0 0 1-.044.012h-.002a.215.215 0 0 1-.045.004h-.001zM8.936 17.604a.253.253 0 0 1-.093-.489l.002-.001.538-.207a.253.253 0 0 1 .184.472l-.002.001-.538.207c-.012.005-.028.009-.043.013h-.002a.215.215 0 0 1-.045.004zM19.017 8.27h-.001a.296.296 0 0 1-.052-.005h.002a.254.254 0 0 1-.053-.017l.002.001a.253.253 0 0 1-.129-.336l-.001.002.199-.452a.253.253 0 0 1 .461.207l.001-.002-.1.226-.1.226a.252.252 0 0 1-.23.15zm-5.199 8.903h-.002a.18.18 0 0 1-.116-.041.214.214 0 0 1-.073-.109v-.002l-.744-2.471c-.025-.082-.023-.146.005-.194a.147.147 0 0 1 .127-.073h.012-.001.002c.042 0 .082.013.114.036h-.001a.196.196 0 0 1 .074.108v.001l.647 2.255h-.081l.6-2.235a.16.16 0 0 1 .066-.092h.001a.197.197 0 0 1 .115-.037h.003c.042 0 .081.012.114.033l-.001-.001c.035.02.059.054.068.093v.001l.603 2.238h-.074l.651-2.275q.037-.126.189-.126c.069 0 .113.026.133.079a.309.309 0 0 1 0 .19l.001-.002-.744 2.468a.27.27 0 0 1-.076.113.182.182 0 0 1-.237-.002.255.255 0 0 1-.071-.106l-.001-.002-.596-2.301h.089l-.603 2.298a.27.27 0 0 1-.076.113.175.175 0 0 1-.116.044h-.001z"/><path fill="#3a5b66" style="fill:var(--color1,#3a5b66)" d="M16.895 17.173h-.002a.18.18 0 0 1-.116-.041.222.222 0 0 1-.074-.109v-.002l-.742-2.471c-.025-.082-.023-.146.005-.194a.148.148 0 0 1 .127-.073h.014c.042 0 .081.013.113.036h-.001a.196.196 0 0 1 .074.108v.001l.646 2.255h-.081l.6-2.233a.165.165 0 0 1 .066-.092h.001a.197.197 0 0 1 .115-.037h.003c.042 0 .081.012.114.033l-.001-.001a.14.14 0 0 1 .068.093v.001l.602 2.236h-.074l.651-2.275q.037-.126.189-.126.104 0 .133.079a.302.302 0 0 1-.001.19l.001-.002-.742 2.468a.27.27 0 0 1-.076.113.181.181 0 0 1-.237-.002.249.249 0 0 1-.071-.106l-.001-.002-.596-2.301h.089l-.603 2.298a.27.27 0 0 1-.076.113.175.175 0 0 1-.116.044h-.002z"/></symbol></defs></svg>