<svg aria-hidden="true" style="position: absolute; width: 0; height: 0; overflow: hidden;" version="1.1" xmlns="http://www.w3.org/2000/svg" xmlns:xlink="http://www.w3.org/1999/xlink">
<defs>
<symbol id="web_wonder-logo" viewBox="0 0 32 32">
<path fill="#3a5b66" style="fill: var(--color1, #3a5b66)" d="M18.75 31.597c-1.378 0-2.755-0.27-4.348-0.584-3.676-0.723-6.579-1.293-8.874-3.643-1.222-1.251-2.083-2.936-3.799-6.295-0.82-1.604-0.988-2.139-1.089-2.549-0.598-2.41 0.073-4.499 0.665-6.341 0.443-1.38 1.186-3.692 3.178-6.091 2.706-3.259 5.949-4.566 7.217-4.977 0.769-0.249 2.201-0.713 4.112-0.713 0.097 0 0.197 0 0.295 0.004 2.758 0.069 4.688 1.065 6.555 2.030 2.478 1.28 4.435 2.291 5.845 4.513 0.154 0.244 0.904 2.345 2.035 5.524 0.762 2.139 1.019 2.925 1.158 4.066 0.172 1.415 0.123 2.765-0.146 4.012-0.76 3.523-3.169 5.681-5.105 7.416-1.636 1.466-2.818 2.525-4.791 3.169-0.858 0.291-1.846 0.46-2.874 0.46-0.012 0-0.023-0-0.034-0h0.002z"></path>
<path fill="#fff" style="fill: var(--color2, #fff)" d="M15.812 0v0.807c0.094 0 0.19 0 0.285 0.004 2.666 0.065 4.554 1.042 6.379 1.985 2.42 1.251 4.334 2.239 5.685 4.362 0.17 0.313 0.9 2.361 2.001 5.453 0.749 2.103 1.003 2.878 1.137 3.977 0.167 1.37 0.12 2.674-0.14 3.877-0.732 3.395-3.087 5.505-4.98 7.201-1.6 1.433-2.755 2.469-4.647 3.087-0.815 0.279-1.754 0.44-2.731 0.44-0.018 0-0.036-0-0.053-0h0.003c-1.339 0-2.698-0.267-4.271-0.576-1.874-0.369-3.493-0.687-4.939-1.208-1.534-0.553-2.717-1.291-3.724-2.321-1.179-1.207-2.031-2.875-3.728-6.196-0.801-1.568-0.966-2.093-1.057-2.464-0.249-1.005-0.288-2.033-0.12-3.142 0.161-1.060 0.503-2.123 0.778-2.978 0.435-1.353 1.162-3.617 3.105-5.956 2.639-3.178 5.796-4.451 7.030-4.851 0.748-0.242 2.14-0.693 3.988-0.693v-0.807zM15.812 0c-1.935 0-3.392 0.459-4.238 0.733-0.801 0.26-4.412 1.504-7.402 5.102-2.001 2.41-2.772 4.73-3.253 6.225-0.642 2-1.286 4.090-0.673 6.562 0.106 0.427 0.28 0.988 1.121 2.636 1.737 3.399 2.605 5.099 3.87 6.393 2.383 2.44 5.329 3.019 9.085 3.757 1.602 0.315 3.009 0.592 4.427 0.592 0.013 0 0.029 0 0.045 0 1.069 0 2.096-0.175 3.056-0.498l-0.067 0.020c2.053-0.671 3.301-1.788 4.935-3.253 1.926-1.725 4.443-3.98 5.231-7.631 0.412-1.907 0.221-3.585 0.152-4.146-0.145-1.186-0.411-1.996-1.178-4.15-1.266-3.553-1.899-5.329-2.076-5.609-1.469-2.312-3.532-3.377-6.002-4.654-1.861-0.962-3.878-2.004-6.729-2.075q-0.154-0.004-0.306-0.004z"></path>
<path fill="#b3b8bd" style="fill: var(--color3, #b3b8bd)" d="M17.84 23.964c0 0 0 0 0 0 0 1.016-0.823 1.839-1.839 1.839s-1.839-0.823-1.839-1.839c0-1.016 0.823-1.839 1.839-1.839 0.508 0 0.968 0.206 1.301 0.539v0c0.333 0.333 0.539 0.793 0.539 1.3v0z"></path>
<path fill="#2e4c59" style="fill: var(--color4, #2e4c59)" d="M16.001 26.057c-0 0-0.001 0-0.002 0-1.157 0-2.094-0.938-2.094-2.094s0.938-2.094 2.094-2.094c1.157 0 2.094 0.938 2.094 2.094 0 0.578-0.235 1.102-0.614 1.481v0c-0.379 0.378-0.901 0.613-1.479 0.613h-0zM16.001 22.379c-0 0-0.001 0-0.002 0-0.877 0-1.588 0.711-1.588 1.588s0.711 1.588 1.588 1.588c0.877 0 1.588-0.711 1.588-1.588 0-0.438-0.178-0.835-0.465-1.123v0c-0.287-0.287-0.683-0.464-1.121-0.464h-0z"></path>
<path fill="#3a5b66" style="fill: var(--color1, #3a5b66)" d="M17.84 23.964c0 0 0 0 0 0 0 1.016-0.823 1.839-1.839 1.839s-1.839-0.823-1.839-1.839c0-1.016 0.823-1.839 1.839-1.839 0.508 0 0.968 0.206 1.301 0.539v0c0.333 0.333 0.539 0.793 0.539 1.3v0z"></path>
<path fill="#fff" style="fill: var(--color2, #fff)" d="M16.001 26.057c-0 0-0.001 0-0.002 0-1.157 0-2.094-0.938-2.094-2.094s0.938-2.094 2.094-2.094c1.157 0 2.094 0.938 2.094 2.094 0 0.578-0.235 1.102-0.614 1.481v0c-0.379 0.378-0.901 0.613-1.479 0.613h-0zM16.001 22.379c-0 0-0.001 0-0.002 0-0.877 0-1.588 0.711-1.588 1.588s0.711 1.588 1.588 1.588c0.877 0 1.588-0.711 1.588-1.588 0-0.438-0.178-0.835-0.465-1.123v0c-0.287-0.287-0.683-0.464-1.121-0.464h-0z"></path>
<path fill="#f93" style="fill: var(--color5, #f93)" d="M20.957 14.777c0-0.001 0-0.003 0-0.005 0-2.738-2.22-4.957-4.957-4.957s-4.957 2.22-4.957 4.957c0 1.396 0.577 2.658 1.506 3.559l0.001 0.001c0.424 0.413 0.764 0.911 0.993 1.466l0.011 0.029c0.218 0.523 0.344 1.13 0.344 1.767 0 0.002 0 0.004 0 0.006v-0 0.102h4.208v-0.102c0.001-0.651 0.137-1.27 0.384-1.83l-0.011 0.029c0.259-0.593 0.608-1.099 1.036-1.527v0c0.892-0.893 1.444-2.127 1.444-3.49 0-0.002 0-0.004 0-0.006v0z"></path>
<path fill="#fff" style="fill: var(--color2, #fff)" d="M18.105 21.953h-4.208c-0.14 0-0.253-0.113-0.253-0.253v0-0.1c0-0 0-0.001 0-0.001 0-0.609-0.122-1.189-0.344-1.718l0.011 0.029c-0.225-0.545-0.543-1.009-0.937-1.395l-0.001-0.001c-0.98-0.949-1.589-2.278-1.589-3.748 0-2.881 2.335-5.216 5.216-5.216s5.216 2.335 5.216 5.216c0 1.41-0.559 2.689-1.469 3.628l0.001-0.001-0.056 0.057c-0.41 0.408-0.743 0.892-0.978 1.43l-0.012 0.030c-0.218 0.498-0.344 1.078-0.344 1.688v0 0.102c0 0 0 0 0 0 0 0.14-0.113 0.253-0.253 0.253v0zM14.148 21.447h3.706c0.021-0.655 0.17-1.27 0.422-1.829l-0.012 0.030c0.272-0.603 0.631-1.119 1.069-1.556l0-0c0.847-0.85 1.37-2.023 1.37-3.318 0-2.597-2.105-4.703-4.703-4.703s-4.703 2.105-4.703 4.703c0 1.302 0.529 2.481 1.385 3.333l0 0 0.043 0.042c0.425 0.415 0.771 0.911 1.011 1.463l0.012 0.030c0.234 0.531 0.379 1.149 0.399 1.798l0 0.007z"></path>
<path fill="#848484" style="fill: var(--color6, #848484)" d="M18.055 22.3h-4.108c-0 0-0 0-0 0-0.26 0-0.47-0.21-0.47-0.47v0-0.079c0-0.26 0.211-0.47 0.47-0.47v0h4.108c0.26 0 0.471 0.211 0.471 0.47v0.079c-0 0.26-0.211 0.47-0.471 0.47v0z"></path>
<path fill="#fff" style="fill: var(--color2, #fff)" d="M18.016 22.554h-4.030c-0.415-0.009-0.747-0.347-0.747-0.763s0.333-0.754 0.747-0.763h4.031c0.005-0 0.010-0 0.016-0 0.421 0 0.763 0.342 0.763 0.763s-0.342 0.763-0.763 0.763c-0.006 0-0.011-0-0.017-0h0.001zM13.986 21.534c-0.13 0.014-0.231 0.124-0.231 0.257s0.101 0.242 0.23 0.257l0.001 0h4.030c0.13-0.014 0.231-0.124 0.231-0.257s-0.101-0.242-0.23-0.257l-0.001-0h-4.030z"></path>
<path fill="#848484" style="fill: var(--color6, #848484)" d="M18.055 23.32h-4.108c-0.26 0-0.47-0.21-0.47-0.47v-0.078c0-0.26 0.211-0.47 0.47-0.47v0h4.108c0 0 0 0 0 0 0.26 0 0.47 0.211 0.47 0.47v0 0.078c0 0.26-0.211 0.47-0.47 0.47-0 0-0 0-0 0h0z"></path>
<path fill="#fff" style="fill: var(--color2, #fff)" d="M18.016 23.573h-4.030c-0.421 0-0.763-0.342-0.763-0.763s0.342-0.763 0.763-0.763h4.030c0.421 0 0.763 0.342 0.763 0.763s-0.342 0.763-0.763 0.763v0zM13.986 22.554c-0.134 0.010-0.239 0.122-0.239 0.257 0 0.13 0.096 0.237 0.221 0.256l0.001 0h4.047c0.13-0.015 0.229-0.124 0.229-0.257s-0.1-0.242-0.228-0.256l-0.001-0z"></path>
<path fill="#848484" style="fill: var(--color6, #848484)" d="M18.055 24.339h-4.108c-0.26-0-0.47-0.211-0.47-0.471v0-0.078c0-0.26 0.211-0.47 0.47-0.47v0h4.108c0.26 0 0.471 0.211 0.471 0.47v0.078c0 0.26-0.211 0.471-0.471 0.471v0z"></path>
<path fill="#fff" style="fill: var(--color2, #fff)" d="M18.016 24.593h-4.030c-0.415-0.009-0.747-0.347-0.747-0.763s0.333-0.754 0.747-0.763h4.031c0.415 0.009 0.747 0.347 0.747 0.763s-0.333 0.754-0.747 0.763h-0.001zM13.986 23.573c-0.13 0.015-0.229 0.124-0.229 0.257s0.1 0.242 0.228 0.256l0.001 0h4.030c0.009 0.001 0.019 0.002 0.029 0.002 0.143 0 0.258-0.116 0.258-0.258s-0.116-0.258-0.258-0.258c-0.010 0-0.020 0.001-0.030 0.002l0.001-0h-4.030zM22.036 20.774c-0.070-0-0.133-0.028-0.179-0.074l-0.941-0.941c-0.044-0.046-0.071-0.108-0.071-0.176 0-0.14 0.113-0.253 0.253-0.253 0.068 0 0.131 0.027 0.176 0.071l0.941 0.941c0.047 0.046 0.076 0.11 0.076 0.18 0 0.139-0.113 0.252-0.252 0.252-0.001 0-0.002 0-0.003-0h0zM11.109 9.848c-0 0-0 0-0 0-0.070 0-0.133-0.028-0.179-0.074v0l-0.941-0.941c-0.046-0.046-0.074-0.109-0.074-0.179 0-0.14 0.113-0.253 0.253-0.253 0.070 0 0.133 0.028 0.179 0.074l0.941 0.941c0.046 0.046 0.074 0.109 0.074 0.179 0 0.14-0.113 0.253-0.253 0.253-0 0-0 0-0 0h0zM24.494 14.841h-1.332c-0.002 0-0.003 0-0.005 0-0.14 0-0.253-0.113-0.253-0.253 0-0.136 0.107-0.247 0.241-0.253l0.001-0h1.349c0.136 0.005 0.244 0.116 0.244 0.253s-0.108 0.248-0.244 0.253h-0zM9.041 14.841h-1.331c-0.136-0.005-0.244-0.116-0.244-0.253s0.108-0.248 0.244-0.253h1.331c0.001-0 0.003-0 0.005-0 0.14 0 0.253 0.113 0.253 0.253 0 0.136-0.107 0.246-0.241 0.253l-0.001 0zM21.095 9.848c-0.14-0-0.253-0.114-0.253-0.253 0-0.070 0.028-0.133 0.074-0.179v0l0.941-0.941c0.046-0.046 0.109-0.074 0.179-0.074 0.14 0 0.253 0.113 0.253 0.253 0 0.070-0.028 0.133-0.074 0.179l-0.941 0.941c-0.046 0.046-0.109 0.074-0.179 0.074-0 0-0 0-0 0v0zM10.168 20.774c-0 0-0 0-0 0-0.14 0-0.253-0.113-0.253-0.253 0-0.070 0.028-0.133 0.074-0.179v0l0.941-0.941c0.046-0.048 0.111-0.077 0.182-0.077 0.14 0 0.253 0.113 0.253 0.253 0 0.071-0.030 0.136-0.077 0.182l-0.941 0.941c-0.045 0.046-0.108 0.074-0.178 0.074-0 0-0.001 0-0.001 0h0zM16.102 7.779c-0 0-0 0-0 0-0.14 0-0.253-0.113-0.253-0.253v0-1.331c0-0.14 0.113-0.253 0.253-0.253s0.253 0.113 0.253 0.253v0 1.332c0 0 0 0 0 0 0 0.139-0.113 0.253-0.252 0.253h-0zM13.594 8.334c-0 0-0.001 0-0.001 0-0.107 0-0.198-0.066-0.235-0.16l-0.001-0.002-0.254-0.662c-0.013-0.029-0.020-0.063-0.020-0.099 0-0.14 0.113-0.253 0.253-0.253 0.11 0 0.204 0.070 0.238 0.169l0.001 0.002 0.127 0.33 0.127 0.329c0.011 0.027 0.017 0.058 0.017 0.091 0 0.107-0.066 0.198-0.16 0.235l-0.002 0.001c-0.013 0.005-0.028 0.010-0.044 0.012l-0.001 0c-0.013 0.003-0.029 0.005-0.045 0.005h-0zM23.123 17.955c-0 0-0 0-0.001 0-0.018 0-0.036-0.002-0.053-0.005l0.002 0c-0.019-0.004-0.036-0.010-0.052-0.017l0.002 0.001-0.249-0.11-0.248-0.109c-0.085-0.042-0.142-0.128-0.142-0.227 0-0.14 0.113-0.253 0.253-0.253 0.034 0 0.066 0.007 0.096 0.019l-0.002-0.001 0.497 0.22c0.089 0.040 0.15 0.129 0.15 0.231 0 0.14-0.113 0.253-0.253 0.253v0zM9.608 11.96c-0.018-0-0.036-0.002-0.053-0.006l0.002 0c-0.019-0.004-0.036-0.010-0.052-0.017l0.002 0.001-0.527-0.234c-0.089-0.040-0.15-0.128-0.15-0.231 0-0.107 0.067-0.199 0.162-0.236l0.002-0.001c0.027-0.011 0.058-0.017 0.091-0.017 0.037 0 0.073 0.008 0.105 0.022l-0.002-0.001 0.527 0.234c0.088 0.041 0.149 0.129 0.149 0.231 0 0.139-0.112 0.252-0.251 0.253h-0zM22.701 12.297c-0.139-0.001-0.252-0.114-0.252-0.253 0-0.107 0.066-0.198 0.159-0.235l0.002-0.001 0.569-0.217c0.027-0.011 0.059-0.017 0.092-0.017 0.14 0 0.253 0.113 0.253 0.253 0 0.037-0.008 0.073-0.023 0.105l0.001-0.002c-0.027 0.062-0.077 0.109-0.139 0.133l-0.002 0.001-0.568 0.217c-0.013 0.005-0.028 0.009-0.044 0.012l-0.002 0c-0.014 0.003-0.029 0.004-0.045 0.004-0 0-0.001 0-0.001 0h0zM8.936 17.604c-0.14-0-0.253-0.113-0.253-0.253 0-0.107 0.066-0.198 0.16-0.236l0.002-0.001 0.538-0.207c0.027-0.011 0.058-0.017 0.091-0.017 0.14 0 0.253 0.113 0.253 0.253 0 0.107-0.066 0.199-0.16 0.236l-0.002 0.001-0.538 0.207c-0.012 0.005-0.028 0.009-0.043 0.013l-0.002 0c-0.014 0.003-0.029 0.004-0.045 0.004h-0zM19.017 8.27c-0 0-0.001 0-0.001 0-0.018 0-0.035-0.002-0.052-0.005l0.002 0c-0.020-0.004-0.037-0.010-0.053-0.017l0.002 0.001c-0.090-0.040-0.151-0.129-0.151-0.232 0-0.037 0.008-0.072 0.022-0.104l-0.001 0.002 0.199-0.452c0.043-0.082 0.128-0.137 0.225-0.137 0.14 0 0.253 0.113 0.253 0.253 0 0.032-0.006 0.063-0.017 0.091l0.001-0.002-0.1 0.226-0.1 0.226c-0.040 0.089-0.128 0.15-0.23 0.15v0zM13.818 17.173c-0.001 0-0.002 0-0.002 0-0.044 0-0.085-0.015-0.116-0.041l0 0c-0.035-0.028-0.061-0.066-0.073-0.109l-0-0.002-0.744-2.471c-0.025-0.082-0.023-0.146 0.005-0.194 0.026-0.044 0.073-0.073 0.127-0.073 0.004 0 0.008 0 0.012 0l-0.001-0c0 0 0.001 0 0.002 0 0.042 0 0.082 0.013 0.114 0.036l-0.001-0c0.036 0.026 0.062 0.064 0.074 0.108l0 0.001 0.647 2.255h-0.081l0.6-2.235c0.011-0.039 0.034-0.071 0.066-0.092l0.001-0c0.032-0.023 0.072-0.037 0.115-0.037 0.001 0 0.002 0 0.003 0h-0c0.042 0 0.081 0.012 0.114 0.033l-0.001-0.001c0.035 0.020 0.059 0.054 0.068 0.093l0 0.001 0.603 2.238h-0.074l0.651-2.275q0.037-0.126 0.189-0.126c0.069 0 0.113 0.026 0.133 0.079 0.009 0.028 0.015 0.060 0.015 0.094s-0.005 0.066-0.015 0.096l0.001-0.002-0.744 2.468c-0.016 0.045-0.042 0.083-0.076 0.113l-0 0c-0.031 0.027-0.072 0.043-0.117 0.043-0.046 0-0.088-0.017-0.12-0.045l0 0c-0.032-0.029-0.057-0.065-0.071-0.106l-0.001-0.002-0.596-2.301h0.089l-0.603 2.298c-0.016 0.045-0.042 0.083-0.076 0.113l-0 0c-0.031 0.027-0.071 0.044-0.116 0.044-0 0-0.001 0-0.001 0h0z"></path>
<path fill="#3a5b66" style="fill: var(--color1, #3a5b66)" d="M16.895 17.173c-0.001 0-0.002 0-0.002 0-0.044 0-0.085-0.015-0.116-0.041l0 0c-0.035-0.028-0.061-0.066-0.074-0.109l-0-0.002-0.742-2.471c-0.025-0.082-0.023-0.146 0.005-0.194 0.026-0.044 0.074-0.073 0.127-0.073 0.004 0 0.008 0 0.012 0l-0-0c0.001 0 0.001 0 0.002 0 0.042 0 0.081 0.013 0.113 0.036l-0.001-0c0.036 0.026 0.062 0.064 0.074 0.108l0 0.001 0.646 2.255h-0.081l0.6-2.233c0.011-0.039 0.035-0.071 0.066-0.092l0.001-0c0.032-0.023 0.072-0.037 0.115-0.037 0.001 0 0.002 0 0.003 0h-0c0.042 0 0.081 0.012 0.114 0.033l-0.001-0.001c0.035 0.020 0.060 0.054 0.068 0.093l0 0.001 0.602 2.236h-0.074l0.651-2.275q0.037-0.126 0.189-0.126 0.104 0 0.133 0.079c0.010 0.028 0.015 0.060 0.015 0.094s-0.006 0.066-0.016 0.096l0.001-0.002-0.742 2.468c-0.016 0.045-0.042 0.083-0.076 0.113l-0 0c-0.032 0.027-0.073 0.043-0.117 0.043-0.046 0-0.088-0.017-0.12-0.045l0 0c-0.032-0.028-0.057-0.065-0.071-0.106l-0.001-0.002-0.596-2.301h0.089l-0.603 2.298c-0.016 0.045-0.042 0.083-0.076 0.113l-0 0c-0.031 0.027-0.071 0.044-0.116 0.044-0.001 0-0.001 0-0.002 0h0z"></path>
</symbol>
</defs>
</svg>
